<svg width="657.9px" height="122px" xmlns="http://www.w3.org/2000/svg" viewBox="-78.94687499999998 14 657.89375 122" style="background: rgba(0, 0, 0, 0)" preserveAspectRatio="xMidYMid"><defs><linearGradient id="editing-gradient-gradient" x1="0" x2="1" y1="0.5" y2="0.5" gradientUnits="objectBoundingBox"><stop offset="0" stop-color="#3f71e1"></stop><stop offset="1" stop-color="#56b44c"></stop></linearGradient></defs><g><g transform="matrix(1.4,0,0,1.6,-55.4,190.1)"><path d="M 4.3 -54.7 L -9.7 -54.7 L -1.6 -96.9 L 12.5 -96.9 L 4.3 -54.7 Z M 60 -53.4 L 60 -53.4 L 60 -53.4 Q 52.3 -53.4 52.3 -59.4 L 52.3 -59.4 L 52.3 -59.4 Q 52.3 -62 53.4 -67.1 L 53.4 -67.1 L 53.4 -67.1 Q 54.5 -72.2 54.9 -74.2 L 54.9 -74.2 L 54.9 -74.2 Q 55.8 -78.9 55.8 -80.4 L 55.8 -80.4 L 55.8 -80.4 Q 55.8 -83.6 53.3 -83.6 L 53.3 -83.6 L 53.3 -83.6 Q 51.7 -83.6 50.2 -81.4 L 50.2 -81.4 L 50.2 -81.4 Q 48.7 -79.2 48 -74.8 L 48 -74.8 L 44 -54.7 L 31.5 -53.4 L 35 -70.8 L 35 -70.8 Q 35.6 -73.7 36.1 -76.9 L 36.1 -76.9 L 36.1 -76.9 Q 36.6 -80.2 36.6 -80.7 L 36.6 -80.7 L 36.6 -80.7 Q 36.6 -83.6 34.4 -83.6 L 34.4 -83.6 L 34.4 -83.6 Q 32.9 -83.6 31.3 -81.5 L 31.3 -81.5 L 31.3 -81.5 Q 29.7 -79.3 28.8 -74.8 L 28.8 -74.8 L 24.9 -54.7 L 12.3 -53.4 L 19 -87.3 L 29.5 -88.6 L 28.4 -82.1 L 28.4 -82.1 Q 30.1 -85.6 33.1 -87.1 L 33.1 -87.1 L 33.1 -87.1 Q 36.2 -88.6 41 -88.6 L 41 -88.6 L 41 -88.6 Q 43.7 -88.6 45.5 -87.2 L 45.5 -87.2 L 45.5 -87.2 Q 47.3 -85.9 47.9 -83.7 L 47.9 -83.7 L 47.9 -83.7 Q 49 -86 51.8 -87.3 L 51.8 -87.3 L 51.8 -87.3 Q 54.6 -88.6 58 -88.6 L 58 -88.6 L 58 -88.6 Q 61.4 -88.6 63.1 -87.8 L 63.1 -87.8 L 63.1 -87.8 Q 64.8 -87.1 65.8 -85.9 L 65.8 -85.9 L 65.8 -85.9 Q 67.6 -83.6 67.6 -79.6 L 67.6 -79.6 L 67.6 -79.6 Q 67.6 -75.5 65.8 -67.1 L 65.8 -67.1 L 65.8 -67.1 Q 64.9 -63 64.9 -61.5 L 64.9 -61.5 L 64.9 -61.5 Q 64.9 -60 65.8 -59.1 L 65.8 -59.1 L 65.8 -59.1 Q 66.7 -58.2 67.9 -58.1 L 67.9 -58.1 L 67.9 -58.1 Q 67.3 -55.9 65.1 -54.7 L 65.1 -54.7 L 65.1 -54.7 Q 62.9 -53.4 60 -53.4 Z M 75.7 -56.6 L 75.7 -56.6 L 75.7 -56.6 Q 74.1 -58.2 73.5 -60.9 L 73.5 -60.9 L 73.5 -60.9 Q 72.8 -63.5 72.8 -67.8 L 72.8 -67.8 L 72.8 -67.8 Q 72.8 -72.1 74.3 -76 L 74.3 -76 L 74.3 -76 Q 75.7 -79.9 78.4 -82.7 L 78.4 -82.7 L 78.4 -82.7 Q 83.9 -88.6 93 -88.6 L 93 -88.6 L 93 -88.6 Q 96.3 -88.6 98.7 -87.5 L 98.7 -87.5 L 109.6 -88.6 L 104.9 -63.6 L 104.9 -63.6 Q 104.7 -62.8 104.7 -61.4 L 104.7 -61.4 L 104.7 -61.4 Q 104.7 -60 105.5 -59.1 L 105.5 -59.1 L 105.5 -59.1 Q 106.4 -58.2 107.7 -58.1 L 107.7 -58.1 L 107.7 -58.1 Q 107 -55.9 104.7 -54.7 L 104.7 -54.7 L 104.7 -54.7 Q 102.4 -53.4 99.7 -53.4 L 99.7 -53.4 L 99.7 -53.4 Q 97.1 -53.4 95.4 -54.4 L 95.4 -54.4 L 95.4 -54.4 Q 93.6 -55.4 93.1 -57 L 93.1 -57 L 93.1 -57 Q 92.1 -55.4 89.9 -54.4 L 89.9 -54.4 L 89.9 -54.4 Q 87.7 -53.4 84.8 -53.4 L 84.8 -53.4 L 84.8 -53.4 Q 81.9 -53.4 79.5 -54.1 L 79.5 -54.1 L 79.5 -54.1 Q 77.2 -54.9 75.7 -56.6 Z M 89.2 -82.6 L 89.2 -82.6 L 89.2 -82.6 Q 88.4 -81.4 87.8 -79.5 L 87.8 -79.5 L 87.8 -79.5 Q 87.1 -77.5 86.1 -72.3 L 86.1 -72.3 L 86.1 -72.3 Q 85 -67.1 85 -63.4 L 85 -63.4 L 85 -63.4 Q 85 -59.6 85.6 -58.6 L 85.6 -58.6 L 85.6 -58.6 Q 86.2 -57.5 87.2 -57.5 L 87.2 -57.5 L 87.2 -57.5 Q 89.3 -57.5 90.8 -59.4 L 90.8 -59.4 L 90.8 -59.4 Q 92.3 -61.4 92.8 -64.8 L 92.8 -64.8 L 96.2 -83.6 L 96.2 -83.6 Q 94.9 -84.7 93.3 -84.7 L 93.3 -84.7 L 93.3 -84.7 Q 91.7 -84.7 90.8 -84.2 L 90.8 -84.2 L 90.8 -84.2 Q 89.9 -83.7 89.2 -82.6 Z M 117.3 -81.4 L 117.3 -81.4 L 117.3 -81.4 Q 119.5 -84.5 122.8 -86.5 L 122.8 -86.5 L 122.8 -86.5 Q 126.1 -88.6 130.1 -88.6 L 130.1 -88.6 L 130.1 -88.6 Q 134.2 -88.6 136.1 -87.3 L 136.1 -87.3 L 148.6 -88.6 L 144.3 -64 L 144.3 -64 Q 142.1 -51.5 137.3 -46.5 L 137.3 -46.5 L 137.3 -46.5 Q 132.8 -41.9 123.9 -41.9 L 123.9 -41.9 L 123.9 -41.9 Q 117.2 -41.9 113.4 -44 L 113.4 -44 L 113.4 -44 Q 109.5 -46.1 109.5 -49.6 L 109.5 -49.6 L 109.5 -49.6 Q 109.5 -52.2 111.5 -53.7 L 111.5 -53.7 L 111.5 -53.7 Q 113.5 -55.2 116.6 -55.2 L 116.6 -55.2 L 116.6 -55.2 Q 119.3 -55.2 121.3 -54 L 121.3 -54 L 121.3 -54 Q 122.5 -53.4 123.1 -52.5 L 123.1 -52.5 L 123.1 -52.5 Q 121.6 -51.2 121.6 -49.1 L 121.6 -49.1 L 121.6 -49.1 Q 121.6 -46.3 124.2 -46.3 L 124.2 -46.3 L 124.2 -46.3 Q 128.5 -46.3 130.9 -56.4 L 130.9 -56.4 L 130.9 -56.4 Q 131.6 -59.2 132.2 -62 L 132.2 -62 L 132.2 -62 Q 129.3 -58.4 122.8 -58.4 L 122.8 -58.4 L 122.8 -58.4 Q 118.2 -58.4 115.6 -60.6 L 115.6 -60.6 L 115.6 -60.6 Q 113 -62.8 113 -67.9 L 113 -67.9 L 113 -67.9 Q 113 -71.1 114.1 -74.7 L 114.1 -74.7 L 114.1 -74.7 Q 115.2 -78.3 117.3 -81.4 Z M 125.7 -67.7 L 125.7 -67.7 L 125.7 -67.7 Q 125.7 -63.4 127.9 -63.4 L 127.9 -63.4 L 127.9 -63.4 Q 129.4 -63.4 130.9 -65 L 130.9 -65 L 130.9 -65 Q 132.1 -66.4 132.5 -68.4 L 132.5 -68.4 L 135.8 -84.8 L 135.8 -84.8 Q 135.5 -84.9 135.1 -85 L 135.1 -85 L 135.1 -85 Q 134.5 -85.2 133.7 -85.2 L 133.7 -85.2 L 133.7 -85.2 Q 129.8 -85.2 127.5 -78.8 L 127.5 -78.8 L 127.5 -78.8 Q 125.7 -73.9 125.7 -67.7 Z M 177.1 -65.5 L 177.1 -65.5 L 177.1 -65.5 Q 178.7 -64.4 178.7 -62 L 178.7 -62 L 178.7 -62 Q 178.7 -59.6 177.4 -58 L 177.4 -58 L 177.4 -58 Q 176.2 -56.5 174.2 -55.5 L 174.2 -55.5 L 174.2 -55.5 Q 170.1 -53.4 165.7 -53.4 L 165.7 -53.4 L 165.7 -53.4 Q 161.3 -53.4 158.7 -54.3 L 158.7 -54.3 L 158.7 -54.3 Q 156.1 -55.3 154.4 -57.1 L 154.4 -57.1 L 154.4 -57.1 Q 151 -60.5 151 -66.7 L 151 -66.7 L 151 -66.7 Q 151 -76.4 156.3 -82.2 L 156.3 -82.2 L 156.3 -82.2 Q 161.9 -88.6 171.7 -88.6 L 171.7 -88.6 L 171.7 -88.6 Q 177.8 -88.6 180.8 -86 L 180.8 -86 L 180.8 -86 Q 183 -84.1 183 -81 L 183 -81 L 183 -81 Q 183 -69.7 163.6 -69.7 L 163.6 -69.7 L 163.6 -69.7 Q 163.3 -68 163.3 -66.6 L 163.3 -66.6 L 163.3 -66.6 Q 163.3 -63.7 164.6 -62.6 L 164.6 -62.6 L 164.6 -62.6 Q 165.9 -61.4 168.4 -61.4 L 168.4 -61.4 L 168.4 -61.4 Q 170.8 -61.4 173.4 -62.6 L 173.4 -62.6 L 173.4 -62.6 Q 176 -63.7 177.1 -65.5 Z M 164 -72.4 L 164 -72.4 L 164 -72.4 Q 168.5 -72.4 171.2 -75.3 L 171.2 -75.3 L 171.2 -75.3 Q 173.8 -78 173.8 -82.2 L 173.8 -82.2 L 173.8 -82.2 Q 173.8 -83.7 173.3 -84.5 L 173.3 -84.5 L 173.3 -84.5 Q 172.7 -85.3 171.6 -85.3 L 171.6 -85.3 L 171.6 -85.3 Q 170.5 -85.3 169.6 -84.9 L 169.6 -84.9 L 169.6 -84.9 Q 168.7 -84.5 167.7 -83.1 L 167.7 -83.1 L 167.7 -83.1 Q 165.3 -79.9 164 -72.4 Z M 204.3 -77.1 L 204.3 -77.1 L 204.3 -77.1 Q 205.2 -79.5 205.2 -81.5 L 205.2 -81.5 L 205.2 -81.5 Q 205.2 -85.3 202.1 -85.3 L 202.1 -85.3 L 202.1 -85.3 Q 200.5 -85.3 199.2 -83.9 L 199.2 -83.9 L 199.2 -83.9 Q 197.9 -82.4 197.9 -80.6 L 197.9 -80.6 L 197.9 -80.6 Q 197.9 -79.4 198.9 -78.3 L 198.9 -78.3 L 198.9 -78.3 Q 200.4 -76.9 204.2 -74.6 L 204.2 -74.6 L 204.2 -74.6 Q 208 -72.3 209.4 -70.4 L 209.4 -70.4 L 209.4 -70.4 Q 210.9 -68.5 210.9 -66 L 210.9 -66 L 210.9 -66 Q 210.9 -63.4 209.6 -61 L 209.6 -61 L 209.6 -61 Q 208.4 -58.6 206.1 -57 L 206.1 -57 L 206.1 -57 Q 201.3 -53.4 193.6 -53.4 L 193.6 -53.4 L 193.6 -53.4 Q 189.5 -53.4 186.3 -55.6 L 186.3 -55.6 L 186.3 -55.6 Q 183.1 -57.7 183.1 -60.2 L 183.1 -60.2 L 183.1 -60.2 Q 183.1 -62.7 184.9 -64.1 L 184.9 -64.1 L 184.9 -64.1 Q 186.7 -65.6 189.4 -65.6 L 189.4 -65.6 L 189.4 -65.6 Q 192.1 -65.6 193.8 -64.6 L 193.8 -64.6 L 193.8 -64.6 Q 192.9 -62.5 192.9 -61.1 L 192.9 -61.1 L 192.9 -61.1 Q 192.9 -56.8 196.5 -56.8 L 196.5 -56.8 L 196.5 -56.8 Q 198.1 -56.8 199.1 -57.8 L 199.1 -57.8 L 199.1 -57.8 Q 200.1 -58.8 200.1 -60.4 L 200.1 -60.4 L 200.1 -60.4 Q 200.1 -63.7 194.6 -67.1 L 194.6 -67.1 L 194.6 -67.1 Q 190.1 -70.1 189.1 -71.2 L 189.1 -71.2 L 189.1 -71.2 Q 187.4 -73.3 187.4 -75.8 L 187.4 -75.8 L 187.4 -75.8 Q 187.4 -78.4 188.6 -80.8 L 188.6 -80.8 L 188.6 -80.8 Q 189.8 -83.3 192 -85 L 192 -85 L 192 -85 Q 196.7 -88.6 204.8 -88.6 L 204.8 -88.6 L 204.8 -88.6 Q 209 -88.6 211.5 -86.9 L 211.5 -86.9 L 211.5 -86.9 Q 213.9 -85.2 213.9 -82.4 L 213.9 -82.4 L 213.9 -82.4 Q 213.9 -79.6 212.2 -78 L 212.2 -78 L 212.2 -78 Q 210.5 -76.4 207.5 -76.4 L 207.5 -76.4 L 207.5 -76.4 Q 205.3 -76.4 204.3 -77.1 Z M 255.4 -75.3 L 268.3 -76.4 L 268.3 -76.4 Q 263.7 -66.3 263.7 -54.6 L 263.7 -54.6 L 263.7 -54.6 Q 262 -53.4 259.5 -53.4 L 259.5 -53.4 L 259.5 -53.4 Q 256.9 -53.4 255.3 -54.6 L 255.3 -54.6 L 255.3 -54.6 Q 253.7 -55.7 253.4 -57 L 253.4 -57 L 253.4 -57 Q 251.8 -55.3 249.2 -54.3 L 249.2 -54.3 L 249.2 -54.3 Q 246.6 -53.4 243.9 -53.4 L 243.9 -53.4 L 243.9 -53.4 Q 241.1 -53.4 238.7 -54.3 L 238.7 -54.3 L 238.7 -54.3 Q 236.3 -55.2 234.5 -57.2 L 234.5 -57.2 L 234.5 -57.2 Q 230.4 -61.5 230.4 -69.8 L 230.4 -69.8 L 230.4 -69.8 Q 230.4 -82.6 237.2 -90.2 L 237.2 -90.2 L 237.2 -90.2 Q 244.3 -98.2 256.7 -98.2 L 256.7 -98.2 L 256.7 -98.2 Q 265.4 -98.2 268.5 -93.7 L 268.5 -93.7 L 268.5 -93.7 Q 269.4 -92.3 269.4 -90.6 L 269.4 -90.6 L 269.4 -90.6 Q 269.4 -88.9 268.7 -87.5 L 268.7 -87.5 L 268.7 -87.5 Q 267.9 -86 266.8 -84.9 L 266.8 -84.9 L 266.8 -84.9 Q 264 -82.3 260.6 -82.3 L 260.6 -82.3 L 260.6 -82.3 Q 259.3 -82.3 258 -82.8 L 258 -82.8 L 258 -82.8 Q 258.3 -84.7 258.3 -86.9 L 258.3 -86.9 L 258.3 -86.9 Q 258.3 -89.2 258.1 -90.2 L 258.1 -90.2 L 258.1 -90.2 Q 258 -91.2 257.6 -92 L 257.6 -92 L 257.6 -92 Q 256.7 -93.8 254.9 -93.8 L 254.9 -93.8 L 254.9 -93.8 Q 253.1 -93.8 251.1 -91.8 L 251.1 -91.8 L 251.1 -91.8 Q 249.1 -89.9 247.5 -86.7 L 247.5 -86.7 L 247.5 -86.7 Q 243.9 -79.5 243.9 -70.8 L 243.9 -70.8 L 243.9 -70.8 Q 243.9 -66.9 245.5 -64.1 L 245.5 -64.1 L 245.5 -64.1 Q 247.1 -61 250.1 -61 L 250.1 -61 L 250.1 -61 Q 251.1 -61 252 -61.5 L 252 -61.5 L 252 -61.5 Q 253 -62 253.3 -62.4 L 253.3 -62.4 L 255.4 -75.3 Z M 274.2 -56.6 L 274.2 -56.6 L 274.2 -56.6 Q 272.7 -58.2 272.1 -60.9 L 272.1 -60.9 L 272.1 -60.9 Q 271.4 -63.5 271.4 -67.8 L 271.4 -67.8 L 271.4 -67.8 Q 271.4 -72.1 272.9 -76 L 272.9 -76 L 272.9 -76 Q 274.3 -79.9 277 -82.7 L 277 -82.7 L 277 -82.7 Q 282.5 -88.6 291.6 -88.6 L 291.6 -88.6 L 291.6 -88.6 Q 294.9 -88.6 297.3 -87.5 L 297.3 -87.5 L 308.2 -88.6 L 303.5 -63.6 L 303.5 -63.6 Q 303.3 -62.8 303.3 -61.4 L 303.3 -61.4 L 303.3 -61.4 Q 303.3 -60 304.1 -59.1 L 304.1 -59.1 L 304.1 -59.1 Q 305 -58.2 306.3 -58.1 L 306.3 -58.1 L 306.3 -58.1 Q 305.6 -55.9 303.3 -54.7 L 303.3 -54.7 L 303.3 -54.7 Q 301 -53.4 298.3 -53.4 L 298.3 -53.4 L 298.3 -53.4 Q 295.7 -53.4 294 -54.4 L 294 -54.4 L 294 -54.4 Q 292.2 -55.4 291.7 -57 L 291.7 -57 L 291.7 -57 Q 290.7 -55.4 288.5 -54.4 L 288.5 -54.4 L 288.5 -54.4 Q 286.3 -53.4 283.4 -53.4 L 283.4 -53.4 L 283.4 -53.4 Q 280.5 -53.4 278.1 -54.1 L 278.1 -54.1 L 278.1 -54.1 Q 275.7 -54.9 274.2 -56.6 Z M 287.7 -82.6 L 287.7 -82.6 L 287.7 -82.6 Q 287 -81.4 286.4 -79.5 L 286.4 -79.5 L 286.4 -79.5 Q 285.7 -77.5 284.7 -72.3 L 284.7 -72.3 L 284.7 -72.3 Q 283.6 -67.1 283.6 -63.4 L 283.6 -63.4 L 283.6 -63.4 Q 283.6 -59.6 284.2 -58.6 L 284.2 -58.6 L 284.2 -58.6 Q 284.8 -57.5 285.8 -57.5 L 285.8 -57.5 L 285.8 -57.5 Q 287.8 -57.5 289.3 -59.4 L 289.3 -59.4 L 289.3 -59.4 Q 290.9 -61.4 291.4 -64.8 L 291.4 -64.8 L 294.8 -83.6 L 294.8 -83.6 Q 293.5 -84.7 291.9 -84.7 L 291.9 -84.7 L 291.9 -84.7 Q 290.3 -84.7 289.4 -84.2 L 289.4 -84.2 L 289.4 -84.2 Q 288.5 -83.7 287.7 -82.6 Z M 326.9 -58.2 L 326.9 -58.2 L 326.9 -58.2 Q 325 -53.4 318.6 -53.4 L 318.6 -53.4 L 318.6 -53.4 Q 315.4 -53.4 313.4 -55.6 L 313.4 -55.6 L 313.4 -55.6 Q 311.7 -57.5 311.7 -59.6 L 311.7 -59.6 L 311.7 -59.6 Q 311.7 -64.4 314 -74.9 L 314 -74.9 L 318.6 -99.5 L 331.6 -100.7 L 325.4 -68.4 L 325.4 -68.4 Q 324.3 -63.6 324.3 -62 L 324.3 -62 L 324.3 -62 Q 324.3 -58.3 326.9 -58.2 Z M 347.7 -58.2 L 347.7 -58.2 L 347.7 -58.2 Q 345.7 -53.4 339.4 -53.4 L 339.4 -53.4 L 339.4 -53.4 Q 336.2 -53.4 334.1 -55.6 L 334.1 -55.6 L 334.1 -55.6 Q 332.5 -57.5 332.5 -59.6 L 332.5 -59.6 L 332.5 -59.6 Q 332.5 -64.4 334.7 -74.9 L 334.7 -74.9 L 339.4 -99.5 L 352.4 -100.7 L 346.1 -68.4 L 346.1 -68.4 Q 345.1 -63.6 345.1 -62 L 345.1 -62 L 345.1 -62 Q 345.1 -58.3 347.7 -58.2 Z M 379 -65.5 L 379 -65.5 L 379 -65.5 Q 380.6 -64.4 380.6 -62 L 380.6 -62 L 380.6 -62 Q 380.6 -59.6 379.4 -58 L 379.4 -58 L 379.4 -58 Q 378.2 -56.5 376.2 -55.5 L 376.2 -55.5 L 376.2 -55.5 Q 372.1 -53.4 367.7 -53.4 L 367.7 -53.4 L 367.7 -53.4 Q 363.3 -53.4 360.7 -54.3 L 360.7 -54.3 L 360.7 -54.3 Q 358.1 -55.3 356.4 -57.1 L 356.4 -57.1 L 356.4 -57.1 Q 353 -60.5 353 -66.7 L 353 -66.7 L 353 -66.7 Q 353 -76.4 358.2 -82.2 L 358.2 -82.2 L 358.2 -82.2 Q 363.9 -88.6 373.7 -88.6 L 373.7 -88.6 L 373.7 -88.6 Q 379.7 -88.6 382.8 -86 L 382.8 -86 L 382.8 -86 Q 385 -84.1 385 -81 L 385 -81 L 385 -81 Q 385 -69.7 365.5 -69.7 L 365.5 -69.7 L 365.5 -69.7 Q 365.3 -68 365.3 -66.6 L 365.3 -66.6 L 365.3 -66.6 Q 365.3 -63.7 366.6 -62.6 L 366.6 -62.6 L 366.6 -62.6 Q 367.9 -61.4 370.3 -61.4 L 370.3 -61.4 L 370.3 -61.4 Q 372.8 -61.4 375.4 -62.6 L 375.4 -62.6 L 375.4 -62.6 Q 378 -63.7 379 -65.5 Z M 366 -72.4 L 366 -72.4 L 366 -72.4 Q 370.5 -72.4 373.2 -75.3 L 373.2 -75.3 L 373.2 -75.3 Q 375.8 -78 375.8 -82.2 L 375.8 -82.2 L 375.8 -82.2 Q 375.8 -83.7 375.2 -84.5 L 375.2 -84.5 L 375.2 -84.5 Q 374.7 -85.3 373.6 -85.3 L 373.6 -85.3 L 373.6 -85.3 Q 372.5 -85.3 371.6 -84.9 L 371.6 -84.9 L 371.6 -84.9 Q 370.7 -84.5 369.7 -83.1 L 369.7 -83.1 L 369.7 -83.1 Q 367.3 -79.9 366 -72.4 Z M 407.2 -72.6 L 407.2 -72.6 L 407.2 -72.6 Q 409.5 -76.7 409.5 -80.9 L 409.5 -80.9 L 409.5 -80.9 Q 409.5 -83.6 407.5 -83.6 L 407.5 -83.6 L 407.5 -83.6 Q 406 -83.6 404.4 -81 L 404.4 -81 L 404.4 -81 Q 402.7 -78.4 402.2 -75 L 402.2 -75 L 398.9 -54.7 L 385.6 -53.4 L 392.2 -87.3 L 402.7 -88.6 L 401.6 -82.1 L 401.6 -82.1 Q 404.7 -88.6 411.7 -88.6 L 411.7 -88.6 L 411.7 -88.6 Q 415.5 -88.6 417.5 -86.7 L 417.5 -86.7 L 417.5 -86.7 Q 419.5 -84.7 419.5 -80.8 L 419.5 -80.8 L 419.5 -80.8 Q 419.5 -76.9 416.9 -74.4 L 416.9 -74.4 L 416.9 -74.4 Q 414.3 -71.9 409.9 -71.9 L 409.9 -71.9 L 409.9 -71.9 Q 408 -71.9 407.2 -72.6 Z M 440.9 -61.9 L 440.9 -61.9 L 440.9 -61.9 Q 437.5 -58.4 431.5 -58.4 L 431.5 -58.4 L 431.5 -58.4 Q 423.8 -58.4 422.2 -64 L 422.2 -64 L 422.2 -64 Q 421.7 -65.7 421.7 -67.5 L 421.7 -67.5 L 421.7 -67.5 Q 421.7 -69.4 422.1 -71.3 L 422.1 -71.3 L 425.1 -87.3 L 438.1 -88.6 L 434.6 -70 L 434.6 -70 Q 434.5 -69.1 434.3 -68.2 L 434.3 -68.2 L 434.3 -68.2 Q 434.1 -67.3 434.1 -66.4 L 434.1 -66.4 L 434.1 -66.4 Q 434.1 -65.5 434.4 -64.9 L 434.4 -64.9 L 434.4 -64.9 Q 434.7 -64.3 435.2 -63.9 L 435.2 -63.9 L 435.2 -63.9 Q 435.9 -63.4 437.3 -63.4 L 437.3 -63.4 L 437.3 -63.4 Q 438.7 -63.4 439.9 -65 L 439.9 -65 L 439.9 -65 Q 441.1 -66.7 441.6 -69.6 L 441.6 -69.6 L 445.2 -87.3 L 457.8 -88.6 L 453 -63.4 L 453 -63.4 Q 450.6 -51.1 445.7 -46.3 L 445.7 -46.3 L 445.7 -46.3 Q 443.2 -43.8 440 -42.8 L 440 -42.8 L 440 -42.8 Q 436.8 -41.8 432.6 -41.8 L 432.6 -41.8 L 432.6 -41.8 Q 425.9 -41.8 422.1 -43.9 L 422.1 -43.9 L 422.1 -43.9 Q 418.2 -46 418.2 -49.5 L 418.2 -49.5 L 418.2 -49.5 Q 418.2 -52.2 420.2 -53.7 L 420.2 -53.7 L 420.2 -53.7 Q 422.2 -55.2 425.3 -55.2 L 425.3 -55.2 L 425.3 -55.2 Q 427.9 -55.2 430 -54 L 430 -54 L 430 -54 Q 431.2 -53.3 431.8 -52.4 L 431.8 -52.4 L 431.8 -52.4 Q 430.3 -51.1 430.3 -49 L 430.3 -49 L 430.3 -49 Q 430.3 -46.2 432.9 -46.2 L 432.9 -46.2 L 432.9 -46.2 Q 437.1 -46.2 439.5 -55.9 L 439.5 -55.9 L 439.5 -55.9 Q 440.2 -58.8 440.9 -61.9 Z" fill="url(#editing-gradient-gradient)"></path></g></g><style>text {
  font-size: 64px;
  font-family: Arial Black;
  dominant-baseline: central;
  text-anchor: middle;
}</style></svg>